<svg xmlns="http://www.w3.org/2000/svg" viewBox="-9668 -1217 32 38">
  <g transform="translate(-9668 -1217)">
    <path d="M142.485,211.23a.6.6,0,0,1,1.193,0v22.778A3.682,3.682,0,0,1,140,237.669H121.516a3.682,3.682,0,0,1-3.677-3.661V211.23a.6.6,0,0,1,1.193,0v22.778a2.491,2.491,0,0,0,2.483,2.474H140a2.493,2.493,0,0,0,2.483-2.473V211.23Z" transform="translate(-114.758 -199.669)"/>
    <path d="M258.251,235.266a.6.6,0,0,1-1.193,0V214.176a.6.6,0,0,1,1.193,0Z" transform="translate(-246.698 -202.462)"/>
    <path d="M354.709,235.266a.6.6,0,0,1-1.193,0V214.176a.6.6,0,0,1,1.193,0Z" transform="translate(-338.112 -202.462)"/>
    <path d="M451.19,235.266a.6.6,0,0,1-1.192,0V214.176a.6.6,0,0,1,1.192,0v21.091Z" transform="translate(-429.549 -202.462)"/>
    <path d="M251.6,3.661a.6.6,0,0,1-1.193,0A3.678,3.678,0,0,1,254.084,0h4.621a3.682,3.682,0,0,1,3.677,3.661.6.6,0,0,1-1.193,0,2.491,2.491,0,0,0-2.483-2.474h-4.621a2.487,2.487,0,0,0-1.754.727A2.462,2.462,0,0,0,251.6,3.661Z" transform="translate(-240.395 0)"/>
    <path d="M61.056,103.108H88.782a2.133,2.133,0,0,1,1.507.625l0,0a2.115,2.115,0,0,1,.627,1.5v1.534a.6.6,0,0,1-.6.594H59.515a.6.6,0,0,1-.6-.594v-1.534a2.117,2.117,0,0,1,.627-1.5l0,0a2.135,2.135,0,0,1,1.507-.625ZM88.782,104.3H61.056a.94.94,0,0,0-.666.275l0,0a.929.929,0,0,0-.276.663v.94H89.725v-.94a.932.932,0,0,0-.276-.663l0,0A.937.937,0,0,0,88.782,104.3Z" transform="translate(-58.919 -97.74)"/>
  </g>
</svg>
