<svg xmlns="http://www.w3.org/2000/svg" viewBox="-17756 -5997 32 44">
  <g transform="translate(-17756 -5995)">
    <path d="M31.351,24.819V10.5A10.255,10.255,0,0,0,21,0,10.24,10.24,0,0,0,10.645,10.5V24.819L5,33.408H37ZM12.529,25.5v-15A8.869,8.869,0,0,1,21,1.909,8.894,8.894,0,0,1,29.471,10.5V25.487L33.235,31.5H8.737l3.792-6ZM21,35.333l-2.567,2.889a2.555,2.555,0,0,0-.26,1.1,2.829,2.829,0,0,0,5.649,0,2.5,2.5,0,0,0-.261-1.1L21,35.333Zm0,4.757a.866.866,0,0,1-.942-.764.64.64,0,0,1,.085-.316L21,37.918l.854,1.094a.64.64,0,0,1,.085.316A.865.865,0,0,1,21,40.091Z" transform="translate(-5 0)"/>
    <path d="M14.6,1.3v-3h2v3Z" transform="translate(0.4 -0.3)"/>
  </g>
</svg>
