<svg xmlns="http://www.w3.org/2000/svg" viewBox="-2601.612 -5547.613 43.225 43.225">
  <g transform="translate(-2594.556 -5540.778)">
    <path fill="#009bc2" d="M141.987,51.992a.558.558,0,0,0-.565.55v8.2a.543.543,0,0,0,.166.389l9.421,9.167a.576.576,0,0,0,.8,0,.539.539,0,0,0,0-.778l-9.256-9.006v-7.97A.558.558,0,0,0,141.987,51.992Z" transform="translate(-128.081 -47.662)"/>
    <path fill="none" stroke="#009bc2" d="M17.024,0A17.448,17.448,0,0,1,34.292,17.272,16.85,16.85,0,0,1,17.269,34.292,17.4,17.4,0,0,1,4.152,28.1,17.715,17.715,0,0,1,.471,20.915,16.777,16.777,0,0,1,0,17.021" transform="matrix(-0.259, -0.966, 0.966, -0.259, 2.432, 35.778)"/>
    <path fill="none" stroke="#009bc2" d="M0,.338s3.9,2.313,4.2,2.3A41.368,41.368,0,0,0,7.914,0" transform="matrix(0.966, -0.259, 0.259, 0.966, -6.444, 18.249)"/>
  </g>
</svg>
