<svg xmlns="http://www.w3.org/2000/svg" viewBox="-17249 -5995 40 40">
  <g transform="translate(-17249 -5997.072)">
    <g transform="translate(0 2.072)">
      <path d="M73.6,67.429A6.877,6.877,0,1,0,80.468,74.3,6.882,6.882,0,0,0,73.6,67.429Zm0,12.372a5.5,5.5,0,1,1,5.516-5.5A5.514,5.514,0,0,1,73.6,79.8Z" transform="translate(-53.597 -54.303)"/>
      <path d="M34.7,17.162l-.191-.069-.744-1.811.081-.186c2.251-5.211,2.1-5.367,1.722-5.745l-3-2.99a.793.793,0,0,0-.524-.211c-.168,0-.681,0-5.116,2.05l-.177.081-1.83-.753-.074-.185c-2.084-5.271-2.3-5.271-2.818-5.271H17.789c-.517,0-.753,0-2.686,5.281l-.073.192-1.82.758-.174-.074A27.6,27.6,0,0,0,7.826,6.281.8.8,0,0,0,7.3,6.49l-3,3c-.382.384-.539.544,1.83,5.647l.087.19-.744,1.808-.182.072C0,19.291,0,19.494,0,20.038v4.24c0,.545,0,.771,5.3,2.708l.189.068.744,1.8-.079.185C3.9,34.257,4.041,34.4,4.425,34.787l3,2.995a.814.814,0,0,0,.528.211c.168,0,.679,0,5.116-2.049l.177-.086,1.831.756.072.188c2.087,5.27,2.3,5.27,2.821,5.27H22.21c.532,0,.752,0,2.687-5.285l.073-.192,1.823-.754.174.073a27.441,27.441,0,0,0,5.205,1.949.793.793,0,0,0,.527-.209l3.011-3c.379-.386.536-.545-1.837-5.642l-.088-.192.743-1.8.177-.071C40,24.849,40,24.645,40,24.1V19.863C40,19.317,40,19.092,34.7,17.162Zm-1.31,9.045-.973,2.363a.705.705,0,0,0,.013.566c.685,1.463,1.591,3.5,1.964,4.5l.106.285-2.519,2.516-.264-.09c-1-.345-3.111-1.22-4.653-1.889a.686.686,0,0,0-.525,0l-2.359.974a.692.692,0,0,0-.382.4C23.136,37.66,22.376,39.59,22,40.419l-.123.27H18.3l-.125-.254c-.468-.95-1.339-3.053-1.95-4.6a.691.691,0,0,0-.374-.387l-2.368-.979a.714.714,0,0,0-.536.014c-1.52.71-3.565,1.616-4.538,1.979l-.27.1L5.615,34.043l.1-.282c.338-.979,1.2-3.062,1.873-4.616a.7.7,0,0,0,0-.545l-.972-2.358a.68.68,0,0,0-.4-.384c-1.541-.561-3.635-1.366-4.6-1.806l-.268-.126V20.384l.261-.128c.934-.451,3.024-1.317,4.6-1.941a.676.676,0,0,0,.382-.375l.977-2.363a.714.714,0,0,0-.012-.568c-.815-1.739-1.64-3.634-1.964-4.5L5.5,10.224,8.016,7.711l.263.09c.974.333,3.082,1.2,4.661,1.887a.674.674,0,0,0,.522,0l2.36-.978a.7.7,0,0,0,.376-.4c.56-1.534,1.362-3.624,1.8-4.591l.123-.27H21.7l.128.258c.463.947,1.333,3.053,1.945,4.609a.7.7,0,0,0,.374.382l2.364.975a.694.694,0,0,0,.532-.009c1.531-.714,3.586-1.622,4.548-1.979l.272-.1,2.52,2.508-.1.282c-.343.989-1.2,3.071-1.872,4.616a.714.714,0,0,0,0,.553l.972,2.362a.686.686,0,0,0,.4.385c1.855.671,3.742,1.409,4.593,1.8l.272.125v3.536l-.259.129c-.956.467-3.061,1.334-4.612,1.947A.68.68,0,0,0,33.394,26.207Z" transform="translate(0 -2.072)"/>
    </g>
  </g>
</svg>
