<svg xmlns="http://www.w3.org/2000/svg" viewBox="-9821.524 -2295.5 49.048 49.037">
  <path d="M26.318,2.554l5.414,11.471A2.6,2.6,0,0,0,33.678,15.5l12.106,1.84a2.737,2.737,0,0,1,1.433,4.61l-8.76,8.929a2.781,2.781,0,0,0-.743,2.392L39.782,45.88a2.611,2.611,0,0,1-3.751,2.85L25.2,42.778a2.488,2.488,0,0,0-2.406,0L11.97,48.73a2.611,2.611,0,0,1-3.751-2.85l2.068-12.608a2.781,2.781,0,0,0-.743-2.392L.784,21.952a2.736,2.736,0,0,1,1.433-4.61L14.323,15.5a2.6,2.6,0,0,0,1.946-1.478L21.683,2.554A2.535,2.535,0,0,1,26.318,2.554Z" transform="translate(-9821.001 -2296.047)"/>
</svg>
