<svg xmlns="http://www.w3.org/2000/svg" viewBox="-12411 -6913 151 117">
  <g fill="#3d3d3d" transform="translate(-12418.387 -6913)">
    <path d="M290.843,320.065h-8.7a2.3,2.3,0,1,0,0,4.6h8.7a2.3,2.3,0,1,0,0-4.6Z" transform="translate(-189.92 -242.757)"/>
    <path d="M83.177,378.183a7.386,7.386,0,1,0,7.419,7.386A7.411,7.411,0,0,0,83.177,378.183Zm0,10.168a2.783,2.783,0,1,1,2.8-2.783A2.792,2.792,0,0,1,83.177,388.351Z" transform="translate(-46.029 -283.812)"/>
    <path d="M418.538,378.183a7.386,7.386,0,1,0,7.419,7.386A7.411,7.411,0,0,0,418.538,378.183Zm0,10.168a2.783,2.783,0,1,1,2.8-2.783A2.792,2.792,0,0,1,418.538,388.351Z" transform="translate(-282.485 -283.812)"/>
    <path d="M150.825,268.257A22.291,22.291,0,0,0,133.6,249.3l-9.189-8.738a30.7,30.7,0,0,0-21.244-8.477H85.349a64.786,64.786,0,0,0-28.6,6.695,2.3,2.3,0,1,0,2.06,4.121,60.12,60.12,0,0,1,26.544-6.213H97.138L99,250.408l-57.113,2.206,8.671-5.063a2.3,2.3,0,1,0-2.34-3.971L32.094,253l-8.141.361a22.324,22.324,0,0,0-7.38,1.607c-.062.02-.123.039-.184.064a22.256,22.256,0,0,0-11.052,9.878A22.929,22.929,0,0,0,4,267.818c-.756,2-1.311,4.086-1.944,6.123L.481,279.008l-.17.548a6.7,6.7,0,0,0,1.026,6.034,6.765,6.765,0,0,0,5.488,2.759h8.856a15.337,15.337,0,0,0,28.162,0h70.743a15.337,15.337,0,0,0,28.162,0h5.941a2.307,2.307,0,0,0,2.312-2.3V271A21.578,21.578,0,0,0,150.825,268.257Zm-10.907-10.871.1.081a17.736,17.736,0,0,1,5.9,9.545,7.245,7.245,0,0,1-6-7.115Zm-36.747-20.7h0a26.079,26.079,0,0,1,18.049,7.2l5.718,5.437-23.295.9L101.8,236.69ZM8.708,268.5c.1-.228.2-.454.314-.677l.008-.016a17.724,17.724,0,0,1,6.1-6.905v.636a7.247,7.247,0,0,1-6.513,7.186Q8.659,268.614,8.708,268.5Zm29.744,20.045a10.622,10.622,0,1,1,2-6.177A10.645,10.645,0,0,1,38.452,288.548Zm6.56-4.8h0c.042-.459.063-.921.063-1.381a15.312,15.312,0,0,0-30.624,0s0,.009,0,.014c0,.442.022.916.063,1.367H6.825a2.186,2.186,0,0,1-2.1-2.83l2.353-7.575c.261.017.523.027.785.027A11.868,11.868,0,0,0,19.75,261.54V258.9c0-.058,0-.117,0-.175a17.688,17.688,0,0,1,4.413-.765l8.7-.385,13.493-.521c-.869,5.449-2.071,17.4,1.994,26.7H45.011Zm37.542,0H53.5c-4.939-8.708-3.235-22.145-2.422-26.879L99.511,255c.274,4.765.276,16.533-5.55,23.441C91.153,281.763,87.421,283.5,82.553,283.745Zm56.779-.688a10.689,10.689,0,0,1-21.353-.692,10.688,10.688,0,0,1,21.375,0Q139.355,282.713,139.332,283.057Zm7.045.688h-2.46a15.423,15.423,0,0,0-14.462-16.6q-.391-.02-.787-.02a15.3,15.3,0,0,0-15.312,15.243c0,.455.022.924.063,1.381H95.155a19.7,19.7,0,0,0,2.357-2.36c6.878-8.166,6.949-21.125,6.63-26.568l28.14-1.087a17.654,17.654,0,0,1,3.282,1.021,11.8,11.8,0,0,0-.269,2.5V259.9a11.863,11.863,0,0,0,11.083,11.8v12.05Z" transform="translate(7.386 -180.607)"/>
    <path d="M234.851,93.566a2.32,2.32,0,0,0-3.27,0L214.96,110.113l-2.013-5.187a2.311,2.311,0,0,0-4.313,1.659l3.293,8.485a2.318,2.318,0,0,0,3.792.8l19.133-19.047A2.294,2.294,0,0,0,234.851,93.566Z" transform="translate(-139.607 -82.279)"/>
    <path d="M200.449,56.742A22.439,22.439,0,1,0,222.99,79.181,22.515,22.515,0,0,0,200.449,56.742Zm0,40.273A17.835,17.835,0,1,1,218.366,79.18,17.9,17.9,0,0,1,200.449,97.015Z" transform="translate(-118.054 -56.742)"/>
  </g>
</svg>
