<svg xmlns="http://www.w3.org/2000/svg" viewBox="-12583 -6540 26 32">
  <g fill="#9b9b9b" transform="translate(-12588 -6540)">
    <path d="M27.455,11.919V8.593C27.455,3.855,23.213,0,18,0S8.545,3.855,8.545,8.593v3.326A4.284,4.284,0,0,0,5,16.136v11.58A4.283,4.283,0,0,0,9.272,32H26.728A4.283,4.283,0,0,0,31,27.716V16.136A4.284,4.284,0,0,0,27.455,11.919ZM9.727,8.593c0-4.085,3.711-7.407,8.273-7.407s8.273,3.323,8.273,7.407v3.259H9.727ZM29.818,27.716a3.1,3.1,0,0,1-3.09,3.1H9.272a3.1,3.1,0,0,1-3.09-3.1V16.136a3.1,3.1,0,0,1,3.09-3.1H26.728a3.1,3.1,0,0,1,3.09,3.1Z" transform="translate(0)"/>
    <path d="M25.364,28A2.369,2.369,0,0,0,23,30.37v3.556a2.364,2.364,0,1,0,4.727,0V30.37A2.369,2.369,0,0,0,25.364,28Zm1.182,5.926a1.182,1.182,0,1,1-2.364,0V30.37a1.182,1.182,0,1,1,2.364,0Z" transform="translate(-7.364 -11.407)"/>
  </g>
</svg>
