<svg xmlns="http://www.w3.org/2000/svg" viewBox="-5883 -5482 42 42">
  <g fill="#e2574c" transform="translate(-5883 -5482)">
    <path d="M21,0A21,21,0,1,0,42,21,21,21,0,0,0,21,0Zm0,40.062C10.7,40.062,1.938,31,1.938,21S10.7,1.938,21,1.938,40.062,11,40.062,21,31.3,40.062,21,40.062ZM21,9.21c-1.5,0-1.642.785-1.642,2.053V22.891c0,1.269.138,2.051,1.642,2.051,1.467,0,1.642-.815,1.642-2.051V11.263C22.643,10.025,22.469,9.21,21,9.21Zm0,19.353c-1.445,0-1.621.176-1.621,1.622S19.556,31.8,21,31.8s1.62-.176,1.62-1.62S22.446,28.563,21,28.563Z"/>
  </g>
</svg>
