<svg xmlns="http://www.w3.org/2000/svg" viewBox="-17488 -5995 40.059 49">
  <g transform="translate(-18125 -6630)">
    <g transform="translate(568.392 635)">
      <circle cx="0.819" cy="0.819" r="0.819" transform="translate(81.439 2.73)"/>
      <path d="M95.362,6.006H90.011V5.515A2.679,2.679,0,0,0,87.226,3h-1.42a3.6,3.6,0,0,0-7.1,0h-1.42A2.643,2.643,0,0,0,74.5,5.515v.491H69.154a.516.516,0,0,0-.546.546V41.386a.6.6,0,0,0,.6.546H95.362a.516.516,0,0,0,.546-.546V6.552A.516.516,0,0,0,95.362,6.006Zm-19.71-.491a1.592,1.592,0,0,1,1.693-1.42h1.911a.516.516,0,0,0,.546-.546,2.457,2.457,0,1,1,4.914,0,.516.516,0,0,0,.546.546h1.911a1.555,1.555,0,0,1,1.693,1.42V8.081H75.651ZM94.816,40.84H69.755V7.1h4.8V8.627a.516.516,0,0,0,.546.546h14.36a.516.516,0,0,0,.546-.546V7.1h4.8Z"/>
      <path d="M139.267,139.264H124.962a.546.546,0,1,0,0,1.092h14.36a.516.516,0,0,0,.546-.546A.642.642,0,0,0,139.267,139.264Z" transform="translate(-49.857 -124.413)"/>
      <path d="M139.267,180.224H124.962a.546.546,0,1,0,0,1.092h14.36a.516.516,0,0,0,.546-.546A.642.642,0,0,0,139.267,180.224Z" transform="translate(-49.857 -161.005)"/>
      <path d="M139.267,221.184H124.962a.546.546,0,1,0,0,1.092h14.36a.516.516,0,0,0,.546-.546A.642.642,0,0,0,139.267,221.184Z" transform="translate(-49.857 -197.597)"/>
      <path d="M137.534,262.144H124.9a.55.55,0,0,0,0,1.092h12.684a.488.488,0,0,0,.482-.546A.6.6,0,0,0,137.534,262.144Z" transform="translate(-49.857 -234.189)"/>
      <path d="M132.44,303.1h-7.729c-.177,0-.3.218-.3.546s.118.546.3.546h7.758c.177,0,.3-.218.3-.546C132.735,303.377,132.617,303.1,132.44,303.1Z" transform="translate(-49.857 -270.781)"/>
    </g>
    <g transform="translate(615 548.573)">
      <g transform="translate(-1 127.427)">
        <path fill="#fff" stroke="#fff" d="M25.8-.2V1.7s1.3-4,2.7-4.4,5.2-.4,7.3-1.2S39.9-7.1,40.9-8a3.414,3.414,0,0,1,2.4-1.3s4-1.9,6.4-1.9a3.434,3.434,0,0,1,3.2,1.9A4.782,4.782,0,0,1,56-7a6.054,6.054,0,0,0,3.5,2.4s2.7-.1,2.8,2.2,0,5.5,0,5.5a3.713,3.713,0,0,1-2.8,1.3c-1.5-.2-30.2,0-30.2,0s-1.6-.7-1.6-1.7S25.8-.2,25.8-.2Z"/>
        <path d="M32.24,132.287c-.547-.042-2.94-.761-3.54-1.98l-.18-.3a5.285,5.285,0,0,0-4.56-2.58H16.1a5.333,5.333,0,0,0-3.96,1.8l-.84.84a9.693,9.693,0,0,1-6,3.18l-3.66.48a3.085,3.085,0,0,0-2.64,3v2.7a2.971,2.971,0,0,0,3,3H4.451a3.6,3.6,0,0,0,7.1,0h12.1a3.6,3.6,0,0,0,7.1,0H32a3.05,3.05,0,0,0,3.06-2.94v-4.2A3.06,3.06,0,0,0,32.24,132.287ZM8,144.227a2.4,2.4,0,1,1,2.4-2.4A2.407,2.407,0,0,1,8,144.227Zm19.2,0a2.4,2.4,0,1,1,2.4-2.4A2.407,2.407,0,0,1,27.2,144.227Zm6.6-4.8a1.768,1.768,0,0,1-1.8,1.8H30.748a3.621,3.621,0,0,0-2.07-2.679l-.072-.033-.046-.019-.118-.047-.032-.011q-.066-.024-.133-.045l-.029-.009q-.068-.021-.138-.039l-.031-.008-.138-.032-.035-.007-.135-.024-.04-.007-.132-.017-.045-.005-.134-.01-.044,0c-.059,0-.118,0-.178,0s-.119,0-.178,0l-.044,0-.134.01-.045.005-.132.017-.04.007-.135.024-.035.007-.138.032-.031.008q-.07.018-.138.039l-.029.009q-.067.021-.133.045l-.032.011-.118.047-.045.018-.072.033a3.621,3.621,0,0,0-2.07,2.679h-12.1a3.621,3.621,0,0,0-2.07-2.679l-.072-.033-.045-.018-.118-.047-.032-.011q-.066-.024-.133-.045l-.029-.009q-.068-.021-.138-.039l-.031-.008-.138-.032-.035-.007-.135-.024-.04-.007L8.4,138.25l-.045-.005-.134-.01-.044,0c-.059,0-.118,0-.178,0s-.119,0-.178,0l-.044,0-.134.01-.045.005-.132.017-.04.007-.135.024-.035.007-.138.032-.031.008q-.07.018-.138.039l-.029.009q-.067.021-.133.045l-.032.011-.118.047-.046.019-.072.032a3.621,3.621,0,0,0-2.07,2.679H2a1.768,1.768,0,0,1-1.8-1.8v-2.7a1.71,1.71,0,0,1,1.56-1.74l3.66-.48a10.589,10.589,0,0,0,6.78-3.54l.84-.96a3.968,3.968,0,0,1,3.06-1.38h7.86a4.164,4.164,0,0,1,3.48,1.92l.18.3a5.116,5.116,0,0,0,1.729,1.726.54.54,0,0,0,.181.105,6.06,6.06,0,0,0,2.59.749,1.782,1.782,0,0,1,1.68,1.8v4.2Z" transform="translate(28 -137.427)"/>
      </g>
    </g>
  </g>
</svg>
